<svg xmlns="http://www.w3.org/2000/svg" width="826" height="826" viewBox="0 0 826 826" fill="none"><path d="M548.98 66.58C547.95 66.17 546.93 65.75 545.89 65.36C545.28 65.13 544.67 64.91 544.07 64.69C526.28 58.03 508.06 52.79 489.62 48.97C487.56 48.75 485.53 48.64 483.56 48.64C455.68 48.64 433.95 69.99 433.95 99.04L434.85 493.72C434.85 502.7 430.96 509.58 423.18 514.37C414.8 519.15 406.71 519.15 398.94 514.37C391.15 509.58 387.26 502.69 387.26 493.72V99.03C387.26 70.46 366.24 49.32 339.02 48.63C269.96 62.68 204.12 96.46 150.56 150.02C5.32005 295.25 5.32005 530.72 150.56 675.96C182.24 707.64 218.21 732.41 256.61 750.27C256.79 750.35 256.95 750.44 257.14 750.51C259.3 751.52 261.49 752.49 263.67 753.45C264.52 753.82 265.37 754.2 266.23 754.57C267.74 755.21 269.25 755.85 270.76 756.47C272.31 757.11 273.85 757.75 275.41 758.37C276.24 758.71 277.08 759.02 277.92 759.35C280.17 760.22 282.43 761.1 284.7 761.93C284.85 761.98 285 762.04 285.16 762.1C324.95 776.64 367.93 784.58 412.75 784.58C618.15 784.58 784.64 618.07 784.64 412.68C784.64 255.39 686.97 120.92 548.97 66.58H548.98ZM252.57 374.28C247.2 382.07 239.71 385.66 230.13 385.05C220.55 383.86 213.96 378.77 210.37 369.79C206.18 361.41 200.79 356.32 194.2 354.52C189.41 353.33 184.03 352.73 178.05 352.73C162.48 352.73 152.01 356.92 146.62 365.29C146.01 366.5 145.12 367.99 143.92 369.79C140.93 376.38 139.13 383.25 138.54 390.43V493.7C138.54 502.67 134.94 509.56 127.77 514.35C123.58 516.74 119.45 517.94 115.41 517.94C111.37 517.94 107.41 516.74 103.51 514.35C95.73 509.56 91.84 502.67 91.84 493.7V390.43C94.83 349.13 113.09 322.5 146.61 310.52C156.18 306.33 166.66 304.23 178.04 304.23C210.96 304.23 235.8 318.9 252.56 348.23C257.36 357.21 257.36 365.89 252.56 374.27L252.57 374.28ZM343.26 493.71C343.26 502.68 339.37 509.57 331.59 514.36C327.4 516.75 323.28 517.95 319.24 517.95C315.2 517.95 311.23 516.75 307.34 514.36C299.55 509.57 295.68 502.68 295.68 493.71V328.49C295.68 324.89 296.57 321.61 298.36 318.61C301.95 309.03 308.82 304.24 319.02 304.24C326.2 304.24 331.88 306.64 336.08 311.42C340.86 316.22 343.25 321.91 343.25 328.48V493.7L343.26 493.71ZM525.53 493.71C525.53 502.68 521.65 509.57 513.86 514.36C509.67 516.75 505.55 517.95 501.51 517.95C497.47 517.95 493.51 516.75 489.62 514.36C481.83 509.57 477.95 502.68 477.95 493.71V328.49C477.95 324.89 478.85 321.61 480.64 318.61C484.23 309.03 491.11 304.24 501.29 304.24C508.47 304.24 514.17 306.64 518.34 311.42C523.13 316.22 525.52 321.91 525.52 328.48V493.7L525.53 493.71ZM736.53 502.68C732.95 511.07 726.66 515.86 717.69 517.05C708.71 518.84 701.23 516.15 695.24 508.97L646.76 448.81L598.28 508.97C592.28 516.15 584.82 518.84 575.82 517.05C566.84 515.85 560.56 511.06 556.97 502.68C553.97 493.71 555.47 485.61 561.45 478.45L616.22 411.1L561.45 342.86C554.87 335.08 553.68 326.7 557.88 317.72C562.07 308.74 569.24 304.25 579.41 304.25C587.19 304.25 593.48 307.26 598.28 313.23L646.76 373.39L695.24 313.23C701.23 306.05 708.72 303.06 717.69 304.25C726.67 306.05 732.95 311.14 736.53 319.52C739.54 327.89 738.04 335.68 732.05 342.86L677.28 411.1L732.05 478.45C738.04 485.62 739.53 493.71 736.53 502.68Z" fill="#2897D0"/><path d="M413.14 0.789978C185.49 0.789978 0.930054 185.35 0.930054 413.01C0.930054 640.67 185.48 825.21 413.14 825.21C640.8 825.21 825.35 640.66 825.35 413.01C825.35 185.36 640.8 0.789978 413.14 0.789978ZM413.14 807.09C195.5 807.09 19.0501 630.65 19.0501 413.01C19.0501 195.37 195.5 18.92 413.14 18.92C630.78 18.92 807.23 195.36 807.23 413.01C807.23 630.66 630.79 807.09 413.14 807.09Z" fill="#2897D0"/></svg>