<?xml version="1.0" encoding="UTF-8"?>
<svg id="Camada_1" data-name="Camada 1" xmlns="http://www.w3.org/2000/svg" viewBox="0 0 340.54 378.47">
  <defs>
    <style>
      .cls-1 {
        fill: #7306c5;
        stroke-width: 0px;
      }
    </style>
  </defs>
  <path class="cls-1" d="M171.03,0c35.75,20.81,71.48,41.65,107.25,62.43,20.75,12.05,41.55,24.01,62.26,35.96v13.4c-56.58,32.74-113.36,65.59-170.28,98.52-13.61-7.91-26.99-15.69-41.38-24.05,7.95-4.72,14.91-8.85,22.29-13.23,6.22,3.51,12.4,6.99,19.19,10.82,9.35-5.4,18.77-10.84,29.55-17.06-10.55-6.19-19.88-11.67-29.55-17.34-28.47,16.5-56.72,32.87-85.3,49.43v31.84c28.08,16.23,56.34,32.58,85.17,49.25,28.4-16.41,56.86-32.85,85.46-49.37v-31.62c-6.01-3.52-12.29-7.2-19.77-11.59,8.03-4.65,14.97-8.67,22.29-12.91,6.72,3.84,13.33,7.61,20.24,11.55v44.3c12.88,7.48,25.56,14.84,39.5,22.93v-105.98c7.31-4.28,14.26-8.35,22.27-13.04v146c-56.28,32.52-113.03,65.31-169.97,98.22C113.34,345.58,56.8,312.9,0,280.07v-146.03c7.66,4.49,14.53,8.51,22.18,12.99v106.38c14.23-8.21,26.91-15.53,39.79-22.96v-44.22c10.74-6.37,21.21-12.58,32.97-19.56C62.5,147.95,31.37,129.98.31,112.05c.03.42.03-3.58-.19-13.76,20.56-11.87,41.37-23.83,62.12-35.88C98.01,41.64,133.75,20.81,169.49,0c.51,0,1.02,0,1.53,0ZM73.2,128.18c32.77-18.97,64.98-37.61,97.05-56.17,32.8,18.97,65.01,37.61,97.13,56.19,13.15-7.72,25.57-15,39.46-23.15-46.63-26.91-91.63-52.89-136.6-78.85-45.57,26.32-90.38,52.19-136.67,78.92,13.98,8.14,26.47,15.41,39.62,23.06ZM170.27,351.99c45.15-26.09,90.12-52.09,136.43-78.85-14.11-8.23-26.78-15.61-39.37-22.95-32.66,18.93-64.86,37.59-97.07,56.26-32.77-19-64.94-37.66-97.05-56.28-13.02,7.59-25.5,14.87-39.37,22.95,46.21,26.71,91.21,52.71,136.44,78.85ZM170.26,123.69c17.76,10.17,35.18,20.15,52.59,30.12,7.24-4.26,13.92-8.19,21.73-12.78-25.74-14.86-49.97-28.85-74.32-42.91-24.52,14.16-48.71,28.13-73.64,42.53,6.91,5.68,14.06,8.88,21.23,13.05,17.43-9.98,34.87-19.96,52.41-30.01Z"/>
</svg>